<svg width="204" height="18" viewBox="0 0 204 18" fill="none" xmlns="http://www.w3.org/2000/svg">
<path d="M4.788 6.36577C3.71467 6.36577 2.87 6.7251 2.254 7.44377C1.638 8.16243 1.33 9.1471 1.33 10.3978C1.33 11.6391 1.61467 12.6238 2.184 13.3518C2.76267 14.0704 3.626 14.4298 4.774 14.4298C5.21267 14.4298 5.628 14.3924 6.02 14.3178C6.412 14.2431 6.79467 14.1498 7.168 14.0378V15.1298C6.79467 15.2698 6.40733 15.3724 6.006 15.4378C5.614 15.5031 5.14267 15.5358 4.592 15.5358C3.57467 15.5358 2.72533 15.3258 2.044 14.9058C1.36267 14.4858 0.849333 13.8884 0.504 13.1138C0.168 12.3391 0 11.4291 0 10.3838C0 9.37577 0.182 8.4891 0.546 7.72377C0.919333 6.9491 1.46533 6.3471 2.184 5.91777C2.90267 5.4791 3.77533 5.25977 4.802 5.25977C5.85667 5.25977 6.776 5.45577 7.56 5.84777L7.056 6.91177C6.748 6.77177 6.40267 6.64577 6.02 6.53377C5.64667 6.42177 5.236 6.36577 4.788 6.36577Z" fill="#132623"/>
<path d="M14.7537 7.89177V14.3598H15.8457V17.9998H14.6557V15.3958H9.4337V17.9998H8.2577V14.3598H8.8597C9.5037 13.4731 9.98437 12.4651 10.3017 11.3358C10.6284 10.1971 10.7964 9.0491 10.8057 7.89177H14.7537ZM11.8977 8.85777C11.8604 9.49243 11.7624 10.1504 11.6037 10.8318C11.445 11.5038 11.2397 12.1478 10.9877 12.7638C10.745 13.3798 10.4604 13.9118 10.1337 14.3598H13.5637V8.85777H11.8977Z" fill="#132623"/>
<path d="M20.2145 7.75177C20.8585 7.75177 21.4091 7.89177 21.8665 8.17177C22.3331 8.45177 22.6878 8.84843 22.9305 9.36177C23.1825 9.86577 23.3085 10.4584 23.3085 11.1398V11.8818H18.1705C18.1891 12.7311 18.4038 13.3798 18.8145 13.8278C19.2345 14.2664 19.8178 14.4858 20.5645 14.4858C21.0405 14.4858 21.4605 14.4438 21.8245 14.3598C22.1978 14.2664 22.5805 14.1358 22.9725 13.9678V15.0458C22.5898 15.2138 22.2118 15.3351 21.8385 15.4098C21.4651 15.4938 21.0218 15.5358 20.5085 15.5358C19.7991 15.5358 19.1691 15.3911 18.6185 15.1018C18.0771 14.8124 17.6525 14.3831 17.3445 13.8138C17.0458 13.2351 16.8965 12.5304 16.8965 11.6998C16.8965 10.8784 17.0318 10.1738 17.3025 9.58577C17.5825 8.99777 17.9698 8.5451 18.4645 8.22777C18.9685 7.91043 19.5518 7.75177 20.2145 7.75177ZM20.2005 8.75977C19.6125 8.75977 19.1458 8.9511 18.8005 9.33377C18.4645 9.7071 18.2638 10.2298 18.1985 10.9018H22.0205C22.0111 10.2671 21.8618 9.75377 21.5725 9.36177C21.2831 8.96043 20.8258 8.75977 20.2005 8.75977Z" fill="#132623"/>
<path d="M30.9308 15.3958H29.6848V8.91377H27.4728C27.3515 10.4911 27.1835 11.7651 26.9688 12.7358C26.7541 13.6971 26.4695 14.3971 26.1148 14.8358C25.7601 15.2744 25.3121 15.4938 24.7708 15.4938C24.6495 15.4938 24.5281 15.4844 24.4068 15.4658C24.2948 15.4564 24.2015 15.4331 24.1268 15.3958V14.4718C24.1828 14.4904 24.2435 14.5044 24.3088 14.5138C24.3741 14.5231 24.4395 14.5278 24.5048 14.5278C25.0088 14.5278 25.4101 13.9911 25.7088 12.9178C26.0168 11.8444 26.2501 10.1691 26.4088 7.89177H30.9308V15.3958Z" fill="#132623"/>
<path d="M36.1546 7.76577C37.0692 7.76577 37.7459 7.96643 38.1846 8.36777C38.6232 8.7691 38.8426 9.40843 38.8426 10.2858V15.3958H37.9466L37.7086 14.3318H37.6526C37.3259 14.7424 36.9806 15.0458 36.6166 15.2418C36.2619 15.4378 35.7672 15.5358 35.1326 15.5358C34.4512 15.5358 33.8866 15.3584 33.4386 15.0038C32.9906 14.6398 32.7666 14.0751 32.7666 13.3098C32.7666 12.5631 33.0606 11.9891 33.6486 11.5878C34.2366 11.1771 35.1419 10.9531 36.3646 10.9158L37.6386 10.8738V10.4258C37.6386 9.80043 37.5032 9.36643 37.2326 9.12377C36.9619 8.8811 36.5792 8.75977 36.0846 8.75977C35.6926 8.75977 35.3192 8.82043 34.9646 8.94177C34.6099 9.05377 34.2786 9.18443 33.9706 9.33377L33.5926 8.40977C33.9192 8.23243 34.3066 8.0831 34.7546 7.96177C35.2026 7.8311 35.6692 7.76577 36.1546 7.76577ZM36.5186 11.7698C35.5852 11.8071 34.9366 11.9564 34.5726 12.2178C34.2179 12.4791 34.0406 12.8478 34.0406 13.3238C34.0406 13.7438 34.1666 14.0518 34.4186 14.2478C34.6799 14.4438 35.0112 14.5418 35.4126 14.5418C36.0472 14.5418 36.5746 14.3691 36.9946 14.0238C37.4146 13.6691 37.6246 13.1278 37.6246 12.3998V11.7278L36.5186 11.7698Z" fill="#132623"/>
<path d="M42.3922 7.89177V11.0138H46.4662V7.89177H47.6982V15.3958H46.4662V12.0498H42.3922V15.3958H41.1602V7.89177H42.3922Z" fill="#132623"/>
<path d="M56.5983 11.6298C56.5983 12.8711 56.2809 13.8324 55.6463 14.5138C55.021 15.1951 54.1716 15.5358 53.0983 15.5358C52.4356 15.5358 51.8429 15.3864 51.3203 15.0878C50.8069 14.7798 50.4009 14.3364 50.1023 13.7578C49.8036 13.1698 49.6543 12.4604 49.6543 11.6298C49.6543 10.3884 49.9669 9.43177 50.5923 8.75977C51.2176 8.08777 52.0669 7.75177 53.1403 7.75177C53.8216 7.75177 54.4189 7.90577 54.9323 8.21377C55.4549 8.51243 55.8609 8.9511 56.1503 9.52977C56.4489 10.0991 56.5983 10.7991 56.5983 11.6298ZM50.9283 11.6298C50.9283 12.5164 51.1009 13.2211 51.4463 13.7438C51.8009 14.2571 52.3609 14.5138 53.1263 14.5138C53.8823 14.5138 54.4376 14.2571 54.7923 13.7438C55.1469 13.2211 55.3243 12.5164 55.3243 11.6298C55.3243 10.7431 55.1469 10.0478 54.7923 9.54377C54.4376 9.03977 53.8776 8.78777 53.1123 8.78777C52.3469 8.78777 51.7916 9.03977 51.4463 9.54377C51.1009 10.0478 50.9283 10.7431 50.9283 11.6298Z" fill="#132623"/>
<path d="M68.1942 9.78177C68.1942 10.2484 68.0542 10.6124 67.7742 10.8738C67.4942 11.1351 67.1349 11.3124 66.6962 11.4058V11.4618C67.1629 11.5271 67.5689 11.6951 67.9142 11.9658C68.2596 12.2271 68.4322 12.6378 68.4322 13.1978C68.4322 13.8324 68.1942 14.3598 67.7182 14.7798C67.2515 15.1904 66.4769 15.3958 65.3942 15.3958H62.1602V7.89177H65.3802C65.9122 7.89177 66.3882 7.95243 66.8082 8.07377C67.2375 8.18577 67.5736 8.38177 67.8162 8.66177C68.0682 8.93243 68.1942 9.30577 68.1942 9.78177ZM66.9482 9.93577C66.9482 9.5811 66.8175 9.32443 66.5562 9.16577C66.3042 8.99777 65.8889 8.91377 65.3102 8.91377H63.3922V10.9718H65.0862C66.3275 10.9718 66.9482 10.6264 66.9482 9.93577ZM67.1582 13.1978C67.1582 12.7684 66.9949 12.4604 66.6682 12.2738C66.3415 12.0871 65.8609 11.9938 65.2262 11.9938H63.3922V14.4018H65.2542C65.8702 14.4018 66.3415 14.3131 66.6682 14.1358C66.9949 13.9491 67.1582 13.6364 67.1582 13.1978Z" fill="#132623"/>
<path fill-rule="evenodd" clip-rule="evenodd" d="M86.067 3.12C83.6017 3.12 81.6032 5.08637 81.6032 7.512V17.8512H78.4321V7.512C78.4321 3.36324 81.8504 0 86.067 0H89.3161V3.12H86.067ZM92.4921 3.4224L92.492 6.07362C92.492 10.2224 89.0738 13.5856 84.8571 13.5856H82.9691V10.4656H84.8571C87.3225 10.4656 89.321 8.49924 89.321 6.07361L89.321 3.42239L92.4921 3.4224ZM92.4921 13.2928V18H89.321V13.2928H92.4921Z" fill="#132623"/>
<path d="M159.632 12.194H155.591L154.84 14.0207H152.083L156.301 4.6186H158.963L163.195 14.0207H160.383L159.632 12.194ZM158.84 10.233L157.612 7.22431L156.383 10.233H158.84Z" fill="#132623"/>
<path d="M167.553 14.1415C166.734 14.1415 166.002 13.9804 165.355 13.658C164.709 13.3356 164.204 12.8879 163.84 12.3149C163.485 11.7418 163.308 11.0926 163.308 10.3673C163.308 9.64198 163.485 8.99727 163.84 8.43315C164.204 7.86007 164.709 7.41683 165.355 7.10343C166.002 6.78107 166.734 6.61989 167.553 6.61989C168.39 6.61989 169.114 6.79898 169.724 7.15715C170.334 7.50637 170.766 7.99438 171.021 8.62119L169.014 9.62855C168.677 8.97488 168.186 8.64805 167.54 8.64805C167.075 8.64805 166.689 8.80027 166.379 9.10472C166.079 9.40917 165.929 9.83002 165.929 10.3673C165.929 10.9135 166.079 11.3433 166.379 11.6567C166.689 11.9612 167.075 12.1134 167.54 12.1134C168.186 12.1134 168.677 11.7865 169.014 11.1329L171.021 12.1402C170.766 12.767 170.334 13.2595 169.724 13.6177C169.114 13.9669 168.39 14.1415 167.553 14.1415Z" fill="#132623"/>
<path d="M175.699 14.1415C174.88 14.1415 174.147 13.9804 173.501 13.658C172.855 13.3356 172.35 12.8879 171.985 12.3149C171.631 11.7418 171.453 11.0926 171.453 10.3673C171.453 9.64198 171.631 8.99727 171.985 8.43315C172.35 7.86007 172.855 7.41683 173.501 7.10343C174.147 6.78107 174.88 6.61989 175.699 6.61989C176.536 6.61989 177.259 6.79898 177.869 7.15715C178.479 7.50637 178.911 7.99438 179.166 8.62119L177.159 9.62855C176.823 8.97488 176.331 8.64805 175.685 8.64805C175.221 8.64805 174.834 8.80027 174.525 9.10472C174.224 9.40917 174.074 9.83002 174.074 10.3673C174.074 10.9135 174.224 11.3433 174.525 11.6567C174.834 11.9612 175.221 12.1134 175.685 12.1134C176.331 12.1134 176.823 11.7865 177.159 11.1329L179.166 12.1402C178.911 12.767 178.479 13.2595 177.869 13.6177C177.259 13.9669 176.536 14.1415 175.699 14.1415Z" fill="#132623"/>
<path d="M187.625 10.3941C187.625 10.4121 187.612 10.6225 187.585 11.0254H182.206C182.315 11.4015 182.524 11.6925 182.834 11.8985C183.152 12.0955 183.548 12.194 184.022 12.194C184.376 12.194 184.681 12.1447 184.936 12.0462C185.2 11.9477 185.464 11.7865 185.728 11.5627L187.093 12.9596C186.374 13.7475 185.323 14.1415 183.94 14.1415C183.075 14.1415 182.315 13.9804 181.66 13.658C181.005 13.3356 180.495 12.8879 180.131 12.3149C179.776 11.7418 179.599 11.0926 179.599 10.3673C179.599 9.65094 179.771 9.0107 180.117 8.44658C180.472 7.8735 180.959 7.42578 181.578 7.10343C182.197 6.78107 182.893 6.61989 183.667 6.61989C184.404 6.61989 185.073 6.77212 185.673 7.07656C186.274 7.37206 186.747 7.80634 187.093 8.37942C187.448 8.94354 187.625 9.61512 187.625 10.3941ZM183.68 8.43315C183.28 8.43315 182.943 8.54508 182.67 8.76893C182.406 8.99279 182.238 9.29724 182.165 9.68227H185.196C185.123 9.29724 184.95 8.99279 184.677 8.76893C184.413 8.54508 184.081 8.43315 183.68 8.43315Z" fill="#132623"/>
<path d="M193.64 6.61989C194.559 6.61989 195.297 6.88852 195.852 7.42578C196.416 7.96304 196.698 8.77341 196.698 9.85689V14.0207H194.104V10.2733C194.104 9.27933 193.699 8.78236 192.889 8.78236C192.443 8.78236 192.084 8.92563 191.811 9.21217C191.547 9.49871 191.415 9.92852 191.415 10.5016V14.0207H188.821V6.74078H191.292V7.53323C191.583 7.23774 191.929 7.01388 192.33 6.86166C192.73 6.70048 193.167 6.61989 193.64 6.61989Z" fill="#132623"/>
<path d="M203.432 13.7252C203.214 13.8595 202.945 13.9624 202.627 14.0341C202.317 14.1057 201.985 14.1415 201.63 14.1415C200.665 14.1415 199.924 13.9087 199.405 13.4431C198.886 12.9775 198.627 12.2835 198.627 11.3612V8.91668H197.548V7.00941H198.627V5.11556H201.221V7.00941H202.913V8.91668H201.221V11.3343C201.221 11.594 201.289 11.8 201.425 11.9522C201.571 12.0955 201.762 12.1671 201.999 12.1671C202.299 12.1671 202.563 12.091 202.791 11.9388L203.432 13.7252Z" fill="#132623"/>
<path d="M108.812 4.45326C109.659 4.45326 110.391 4.59205 111.01 4.86964C111.638 5.14723 112.12 5.54123 112.457 6.05163C112.794 6.56203 112.962 7.16646 112.962 7.86491C112.962 8.5544 112.794 9.15883 112.457 9.67818C112.12 10.1886 111.638 10.5826 111.01 10.8602C110.391 11.1288 109.659 11.2631 108.812 11.2631H106.887V13.8554H104.676V4.45326H108.812ZM108.689 9.49014C109.354 9.49014 109.859 9.35135 110.205 9.07376C110.55 8.78722 110.723 8.38427 110.723 7.86491C110.723 7.3366 110.55 6.93365 110.205 6.65606C109.859 6.36951 109.354 6.22624 108.689 6.22624H106.887V9.49014H108.689Z" fill="#132623"/>
<path d="M116.425 7.58284C116.68 7.23362 117.021 6.96946 117.449 6.79037C117.886 6.61128 118.386 6.52174 118.951 6.52174V8.4559C118.714 8.43799 118.555 8.42904 118.473 8.42904C117.863 8.42904 117.385 8.59917 117.039 8.93944C116.693 9.27076 116.521 9.77221 116.521 10.4438V13.8554H114.391V6.62919H116.425V7.58284Z" fill="#132623"/>
<path d="M123.645 13.9629C122.871 13.9629 122.175 13.8062 121.556 13.4928C120.946 13.1704 120.469 12.7272 120.123 12.163C119.777 11.5989 119.604 10.9587 119.604 10.2423C119.604 9.52596 119.777 8.88572 120.123 8.32158C120.469 7.75745 120.946 7.31869 121.556 7.00528C122.175 6.68292 122.871 6.52174 123.645 6.52174C124.418 6.52174 125.11 6.68292 125.72 7.00528C126.33 7.31869 126.807 7.75745 127.153 8.32158C127.499 8.88572 127.672 9.52596 127.672 10.2423C127.672 10.9587 127.499 11.5989 127.153 12.163C126.807 12.7272 126.33 13.1704 125.72 13.4928C125.11 13.8062 124.418 13.9629 123.645 13.9629ZM123.645 12.2436C124.191 12.2436 124.637 12.0645 124.983 11.7064C125.338 11.3392 125.515 10.8512 125.515 10.2423C125.515 9.63341 125.338 9.14987 124.983 8.79169C124.637 8.42456 124.191 8.24099 123.645 8.24099C123.099 8.24099 122.648 8.42456 122.293 8.79169C121.938 9.14987 121.761 9.63341 121.761 10.2423C121.761 10.8512 121.938 11.3392 122.293 11.7064C122.648 12.0645 123.099 12.2436 123.645 12.2436Z" fill="#132623"/>
<path d="M138.501 6.52174C139.421 6.52174 140.149 6.79037 140.686 7.32764C141.232 7.85595 141.505 8.6529 141.505 9.71848V13.8554H139.375V10.0408C139.375 9.46775 139.252 9.04242 139.007 8.76483C138.77 8.47829 138.429 8.33502 137.983 8.33502C137.482 8.33502 137.086 8.4962 136.795 8.81856C136.504 9.13196 136.358 9.60207 136.358 10.2289V13.8554H134.228V10.0408C134.228 8.90362 133.764 8.33502 132.836 8.33502C132.345 8.33502 131.953 8.4962 131.662 8.81856C131.371 9.13196 131.225 9.60207 131.225 10.2289V13.8554H129.096V6.62919H131.13V7.46196C131.403 7.15751 131.735 6.92469 132.126 6.76351C132.527 6.60233 132.963 6.52174 133.437 6.52174C133.955 6.52174 134.424 6.62472 134.843 6.83067C135.261 7.02767 135.598 7.31869 135.853 7.70373C136.153 7.32764 136.531 7.03662 136.986 6.83067C137.45 6.62472 137.955 6.52174 138.501 6.52174Z" fill="#132623"/>
<path d="M146.988 13.9629C146.215 13.9629 145.519 13.8062 144.9 13.4928C144.29 13.1704 143.812 12.7272 143.466 12.163C143.12 11.5989 142.947 10.9587 142.947 10.2423C142.947 9.52596 143.12 8.88572 143.466 8.32158C143.812 7.75745 144.29 7.31869 144.9 7.00528C145.519 6.68292 146.215 6.52174 146.988 6.52174C147.762 6.52174 148.454 6.68292 149.063 7.00528C149.673 7.31869 150.151 7.75745 150.497 8.32158C150.843 8.88572 151.015 9.52596 151.015 10.2423C151.015 10.9587 150.843 11.5989 150.497 12.163C150.151 12.7272 149.673 13.1704 149.063 13.4928C148.454 13.8062 147.762 13.9629 146.988 13.9629ZM146.988 12.2436C147.534 12.2436 147.98 12.0645 148.326 11.7064C148.681 11.3392 148.859 10.8512 148.859 10.2423C148.859 9.63341 148.681 9.14987 148.326 8.79169C147.98 8.42456 147.534 8.24099 146.988 8.24099C146.442 8.24099 145.992 8.42456 145.637 8.79169C145.282 9.14987 145.104 9.63341 145.104 10.2423C145.104 10.8512 145.282 11.3392 145.637 11.7064C145.992 12.0645 146.442 12.2436 146.988 12.2436Z" fill="#132623"/>
</svg>
