<svg width="150" height="150" viewBox="0 0 150 150" fill="none" xmlns="http://www.w3.org/2000/svg">
<path fill-rule="evenodd" clip-rule="evenodd" d="M41.0156 15.2344C22.2466 15.2344 7.03125 30.4497 7.03125 49.2188C7.03125 51.3557 8.00161 54.3238 9.87371 57.9862C11.7272 61.6122 14.3914 65.7812 17.615 70.2769C24.0602 79.2658 32.67 89.4622 41.3017 99.0763C49.9291 108.686 58.5591 117.692 65.0337 124.298C68.2705 127.6 70.9676 130.301 72.855 132.176C73.7711 133.086 74.4964 133.802 75 134.297C75.5036 133.802 76.2289 133.086 77.145 132.176C79.0324 130.301 81.7295 127.6 84.9663 124.298C91.4409 117.692 100.071 108.686 108.698 99.0763C117.33 89.4622 125.94 79.2658 132.385 70.2769C135.609 65.7812 138.273 61.6122 140.126 57.9862C141.998 54.3238 142.969 51.3557 142.969 49.2188C142.969 30.4497 127.753 15.2344 108.984 15.2344C93.2365 15.2344 79.9875 25.9468 76.1327 40.484L75 44.7557L73.8673 40.484C70.0125 25.9468 56.7636 15.2344 41.0156 15.2344ZM75 135.938C74.1826 136.777 74.1823 136.777 74.1817 136.776L73.9823 136.582C73.8508 136.453 73.656 136.262 73.4021 136.013C72.8943 135.514 72.1501 134.78 71.2032 133.839C69.3095 131.958 66.605 129.249 63.3599 125.938C56.8706 119.318 48.2154 110.285 39.5577 100.642C30.9042 91.0036 22.2288 80.7338 15.7102 71.6427C12.4519 67.0984 9.7144 62.8239 7.78681 59.0529C5.87779 55.3183 4.6875 51.9358 4.6875 49.2188C4.6875 29.1553 20.9522 12.8906 41.0156 12.8906C56.5508 12.8906 69.8062 22.6411 75 36.3547C80.1938 22.6411 93.4492 12.8906 108.984 12.8906C129.048 12.8906 145.312 29.1553 145.312 49.2188C145.312 51.9358 144.122 55.3183 142.213 59.0529C140.286 62.8239 137.548 67.0984 134.29 71.6427C127.771 80.7338 119.096 91.0036 110.442 100.642C101.785 110.285 93.1294 119.318 86.6401 125.938C83.395 129.249 80.6905 131.958 78.7968 133.839C77.8499 134.78 77.1057 135.514 76.5979 136.013C76.344 136.262 76.1492 136.453 76.0177 136.582L75.8183 136.776C75.8177 136.777 75.8174 136.777 75 135.938ZM75 135.938L75.8174 136.777L75 137.573L74.1826 136.777L75 135.938Z" fill="black"/>
</svg>
