<svg width="41" height="41" viewBox="0 0 41 41" fill="none" xmlns="http://www.w3.org/2000/svg">
<path fill-rule="evenodd" clip-rule="evenodd" d="M20.5006 0.368164L23.8874 7.86023L30.5666 3.06533L29.7536 11.2471L37.9354 10.4341L33.1405 17.1133L40.6325 20.5001L33.1405 23.887L37.9354 30.5661L29.7536 29.7531L30.5666 37.9349L23.8874 33.14L20.5006 40.632L17.1137 33.14L10.4346 37.9349L11.2476 29.7531L3.06582 30.5661L7.86072 23.887L0.368652 20.5001L7.86072 17.1133L3.06582 10.4341L11.2476 11.2471L10.4346 3.06533L17.1137 7.86023L20.5006 0.368164ZM20.5006 1.99923L17.3881 8.8843L11.2502 4.47788L11.9972 11.9967L4.47837 11.2497L8.88479 17.3877L1.99972 20.5001L8.88479 23.6126L4.47837 29.7505L11.9972 29.0035L11.2502 36.5223L17.3881 32.1159L20.5006 39.001L23.613 32.1159L29.751 36.5223L29.0039 29.0035L36.5228 29.7505L32.1164 23.6126L39.0015 20.5001L32.1164 17.3877L36.5228 11.2497L29.0039 11.9967L29.751 4.47788L23.613 8.8843L20.5006 1.99923Z" fill="black"/>
</svg>
