<svg width="24" height="24" viewBox="0 0 24 24" fill="none" xmlns="http://www.w3.org/2000/svg">
<path d="M12.7698 17.2898C7.29981 17.2898 4.1798 13.5398 4.0498 7.2998H6.7898C6.8798 11.8798 8.8998 13.8198 10.4998 14.2198V7.2998H13.0798V11.2498C14.6598 11.0798 16.3198 9.2798 16.8798 7.2998H19.4598C19.2488 8.32669 18.8281 9.29898 18.2242 10.1559C17.6202 11.0128 16.846 11.7358 15.9498 12.2798C16.9501 12.7769 17.8337 13.4804 18.5421 14.344C19.2506 15.2076 19.7679 16.2116 20.0598 17.2898H17.2198C16.9577 16.3533 16.4251 15.515 15.6886 14.8799C14.9522 14.2449 14.0446 13.8413 13.0798 13.7198V17.2898H12.7698Z" fill="#132623"/>
</svg>
