<svg width="142" height="36" viewBox="0 0 142 36" fill="none" xmlns="http://www.w3.org/2000/svg">
<path fill-rule="evenodd" clip-rule="evenodd" d="M19.5199 17.6222C19.5199 18.4939 19.3421 19.324 18.9843 20.1059C18.6265 20.8877 18.1516 21.5645 17.553 22.1362C16.9544 22.7056 16.259 23.1611 15.4668 23.4962C14.6747 23.8313 13.8398 24 12.9666 24H5V21.1812H9.3456C10.0117 21.1812 10.5743 20.9513 11.0357 20.4935C11.4948 20.0358 11.7266 19.5035 11.7266 18.8991C11.7266 18.6538 11.6748 18.4129 11.5713 18.1763C11.4678 17.942 11.3575 17.712 11.2427 17.4886L6.58655 9.7682C6.31199 9.25351 6.08021 8.71692 5.89793 8.15843C5.71339 7.59993 5.62113 7.01732 5.62113 6.41283C5.62113 5.54114 5.79439 4.71107 6.13871 3.92917C6.48303 3.14509 6.95338 2.46395 7.552 1.88136C8.15062 1.29877 8.8505 0.841016 9.65616 0.505918C10.4596 0.17082 11.3102 0.00219232 12.2082 0.00219232H18.4847V2.82096H15.3476C14.7039 2.82096 14.1863 3.02245 13.7947 3.42545C13.4054 3.82844 13.2096 4.32123 13.2096 4.90163C13.2096 5.12503 13.2456 5.33309 13.3131 5.52363C13.3807 5.71418 13.4729 5.89816 13.5899 6.07775L18.4172 14.0982C18.739 14.6808 19.0045 15.2393 19.2093 15.7759L19.5199 17.6222ZM36.5378 2.82096V23.9978H30.0542V2.82096H25.3981V0.00219232H41.1917V2.82096H36.5378ZM61.0429 23.9978L60.0414 19.9372H51.8678L50.7291 23.9978H47.0721L52.9008 2.82096H50.2813V0.00219232H61.6258L67.6254 23.9978H61.0429ZM56.1459 4.32999L52.6285 17.1184H59.3528L56.1459 4.32999ZM84.6501 2.82096V23.9978H78.1666V2.82096H73.5104V0.00219232H89.304V2.82096H84.6501ZM104.531 23.9978C103.473 23.9978 102.485 23.7963 101.564 23.3933C100.644 22.9903 99.8519 22.4537 99.1857 21.7813C98.5196 21.1112 97.9908 20.3336 97.5992 19.4488C97.2076 18.5662 97.0118 17.631 97.0118 16.6454V2.81876H95.1844V0H103.529V17.8215C103.529 18.6713 103.828 19.3809 104.425 19.9525C105.023 20.5242 105.748 20.8089 106.596 20.8089H109.425V2.81876H107.598V0H115.909V23.9956H104.531V23.9978ZM137 17.6222C137 18.4939 136.822 19.324 136.464 20.1059C136.109 20.8877 135.632 21.5645 135.033 22.1362C134.434 22.7056 133.739 23.1611 132.947 23.4962C132.155 23.8313 131.32 24 130.447 24H122.48V21.1812H126.826C127.492 21.1812 128.054 20.9513 128.516 20.4935C128.975 20.0358 129.207 19.5035 129.207 18.8991C129.207 18.6538 129.155 18.4129 129.051 18.1763C128.948 17.942 128.838 17.712 128.723 17.4886L124.067 9.7682C123.792 9.25351 123.56 8.71692 123.378 8.15843C123.194 7.59993 123.101 7.01732 123.101 6.41283C123.101 5.54114 123.275 4.71107 123.619 3.92917C123.963 3.14509 124.434 2.46395 125.032 1.88136C125.631 1.29877 126.331 0.841016 127.136 0.505918C127.94 0.17082 128.79 0.00219232 129.688 0.00219232H135.965V2.82096H132.828C132.184 2.82096 131.666 3.02245 131.275 3.42545C130.886 3.82844 130.69 4.32123 130.69 4.90163C130.69 5.12503 130.726 5.33309 130.793 5.52363C130.863 5.71418 130.953 5.89816 131.07 6.07775L135.897 14.0982C136.219 14.6808 136.482 15.2393 136.689 15.7759L137 17.6222Z" fill="#61C1B2"/>
<path fill-rule="evenodd" clip-rule="evenodd" d="M3.92885 28.1448H0V29.1565H1.39902V34H2.51868V29.1565H3.92885V28.1448ZM7.57838 32.1683C7.47334 32.8008 7.18281 33.0905 6.49448 33.0905C5.87766 33.0905 5.51562 32.7242 5.51562 31.9233V31.4782H8.62874V30.1789C8.62874 28.7902 7.80186 28.0021 6.4833 28.0021C5.18932 28.0021 4.38477 28.7902 4.38477 30.1789V31.9233C4.38477 33.3227 5.18931 34.1235 6.47211 34.1235C7.79961 34.1235 8.60639 33.4121 8.71143 32.1683H7.57838ZM6.49224 29.0117C7.13365 29.0117 7.50685 29.3674 7.50685 30.1683V30.6688H5.51338V30.1683C5.51561 29.3674 5.87543 29.0117 6.49224 29.0117ZM12.1017 28.0128C11.5542 28.0128 11.0178 28.3003 10.7138 28.6794L10.6312 28.1342H9.81546V36H10.9239V33.6656C11.2256 33.9659 11.6592 34.132 12.1017 34.132C13.2906 34.132 14.0594 33.3099 14.0594 31.8893V30.2769C14.0594 28.8456 13.2661 28.0128 12.1017 28.0128ZM12.9062 31.8893C12.9062 32.7455 12.5688 33.1225 11.9162 33.1225C11.2971 33.1225 10.9262 32.656 10.9262 31.8893V30.2662C10.9262 29.4334 11.3329 29.0224 11.9162 29.0224C12.5464 29.0224 12.9062 29.4121 12.9062 30.279V31.8893ZM17.5458 28.0128C16.9983 28.0128 16.4619 28.3003 16.158 28.6794L16.0775 28.1342H15.2618V36H16.3703V33.6656C16.6742 33.9659 17.1055 34.132 17.548 34.132C18.737 34.132 19.5058 33.3099 19.5058 31.8893V30.2769C19.5035 28.8456 18.7124 28.0128 17.5458 28.0128ZM18.3503 31.8893C18.3503 32.7455 18.0107 33.1225 17.3603 33.1225C16.7413 33.1225 16.3703 32.656 16.3703 31.8893V30.2662C16.3703 29.4334 16.777 29.0224 17.3603 29.0224C17.9905 29.0224 18.3503 29.4121 18.3503 30.279V31.8893ZM20.7059 34H21.8591L23.0368 31.6549C23.2826 31.1544 23.667 30.1001 23.7252 29.8552L23.7609 29.8658C23.7251 30.4558 23.7028 31.1885 23.7028 31.7551V34H24.8001V28.1448H23.6469L22.458 30.6006C22.2591 31.0777 21.9104 31.9553 21.8166 32.2556L21.7808 32.2343C21.8054 31.5996 21.8054 31.0777 21.8054 30.6113V28.1448H20.7081V34H20.7059ZM29.5179 28.1448H25.589V29.1565H26.988V34H28.1077V29.1565H29.5179V28.1448ZM32.1304 34.1342C33.4713 34.1342 34.2982 33.3461 34.2982 31.9127V30.2236C34.2982 28.7902 33.4691 28.0021 32.1304 28.0021C30.8007 28.0021 29.9738 28.7902 29.9738 30.2236V31.9127C29.9738 33.344 30.8007 34.1342 32.1304 34.1342ZM32.1304 33.0905C31.5002 33.0905 31.1158 32.7348 31.1158 31.9127V30.2236C31.1158 29.4015 31.5002 29.0458 32.1304 29.0458C32.7718 29.0458 33.1562 29.4015 33.1562 30.2236V31.9127C33.1562 32.7348 32.7718 33.0905 32.1304 33.0905ZM37.7957 28.0128C37.2482 28.0128 36.7119 28.3003 36.4079 28.6794L36.3252 28.1342H35.5095V36H36.618V33.6656C36.9197 33.9659 37.351 34.132 37.7957 34.132C38.9847 34.132 39.7535 33.3099 39.7535 31.8893V30.2769C39.7535 28.8456 38.9623 28.0128 37.7957 28.0128ZM38.6003 31.8893C38.6003 32.7455 38.2628 33.1225 37.6103 33.1225C36.9912 33.1225 36.6202 32.656 36.6202 31.8893V30.2662C36.6202 29.4334 37.027 29.0224 37.6103 29.0224C38.2405 29.0224 38.6003 29.4121 38.6003 30.279V31.8893ZM40.9558 34H42.109L43.2868 31.6549C43.5304 31.1544 43.917 30.1001 43.9751 29.8552L44.0109 29.8658C43.9751 30.4558 43.9528 31.1885 43.9528 31.7551V34H45.0478V28.1448H43.8947L42.7057 30.6006C42.5068 31.0777 42.1582 31.9553 42.0643 32.2556L42.0286 32.2343C42.0531 31.5996 42.0531 31.0777 42.0531 30.6113V28.1448H40.9581V34H40.9558ZM48.0895 28.1448C46.8648 28.1448 46.0267 28.8669 46.0267 30.0554C46.0267 31.0117 46.505 31.6209 47.1352 31.8658L45.83 33.9979H47.1128L48.2213 32.0213H48.8851V33.9979H49.9801V28.1427H48.0895V28.1448ZM48.8828 31.1012H48.114C47.4615 31.1012 47.1352 30.7455 47.1352 30.0894C47.1352 29.4782 47.4838 29.1225 48.1364 29.1225H48.8828V31.1012ZM56.973 34H58.2669L56.041 30.6454L57.9764 28.1448H56.6355L55.6231 29.5548L54.899 30.6326V28.1427H53.7794V33.9979H54.899V31.9084L55.308 31.4867L56.973 34ZM61.2058 28.0128C60.6582 28.0128 60.1219 28.3003 59.8179 28.6794L59.7375 28.1342H58.9218V36H60.0302V33.6656C60.3319 33.9659 60.7633 34.132 61.2058 34.132C62.3947 34.132 63.1657 33.3099 63.1657 31.8893V30.2769C63.1635 28.8456 62.3724 28.0128 61.2058 28.0128ZM62.0103 31.8893C62.0103 32.7455 61.6729 33.1225 61.0203 33.1225C60.4035 33.1225 60.0302 32.656 60.0302 31.8893V30.2662C60.0302 29.4334 60.437 29.0224 61.0203 29.0224C61.6505 29.0224 62.0103 29.4121 62.0103 30.279V31.8893ZM66.3124 28C65.0765 28 64.2832 28.688 64.2251 29.8104H65.3559C65.414 29.2886 65.7872 29.033 66.2878 29.033C66.9069 29.033 67.1728 29.4206 67.1728 30.1107V30.5218H66.2744C64.9223 30.5218 64.0485 31.1331 64.0485 32.3323C64.0485 33.4313 64.8061 34.1427 65.937 34.1427C66.6141 34.1427 67.0566 33.8424 67.3002 33.4547L67.3807 33.9979H68.3014V30.1086C68.3059 28.7668 67.6287 28 66.3124 28ZM67.175 32.2556C67.175 32.8115 66.7907 33.1885 66.1716 33.1885C65.5548 33.1885 65.1927 32.8669 65.1927 32.3323C65.1927 31.7551 65.5883 31.4547 66.2767 31.4547H67.175V32.2556ZM71.5933 34.1235C72.8985 34.1235 73.7165 33.3461 73.75 31.9787H72.6191C72.5834 32.722 72.2348 33.0884 71.6045 33.0884C71.0101 33.0884 70.6614 32.722 70.6614 31.9787V30.1342C70.6614 29.3887 71.0101 29.0351 71.6045 29.0351C72.2236 29.0351 72.561 29.3908 72.5834 30.1342H73.7254C73.6785 28.7774 72.9208 28 71.5911 28C70.3083 28 69.515 28.7774 69.515 30.1342V31.9787C69.5172 33.344 70.3105 34.1235 71.5933 34.1235ZM76.7693 34.1342C78.1102 34.1342 78.937 33.3461 78.937 31.9127V30.2236C78.937 28.7902 78.1102 28.0021 76.7693 28.0021C75.4395 28.0021 74.6126 28.7902 74.6126 30.2236V31.9127C74.6126 33.344 75.4395 34.1342 76.7693 34.1342ZM76.7693 33.0905C76.139 33.0905 75.7569 32.7348 75.7569 31.9127V30.2236C75.7569 29.4015 76.1413 29.0458 76.7693 29.0458C77.4107 29.0458 77.7951 29.4015 77.7951 30.2236V31.9127C77.7951 32.7348 77.4107 33.0905 76.7693 33.0905ZM83.1587 28.1448H79.2298V29.1565H80.6288V34H81.7485V29.1565H83.1587V28.1448ZM86.0372 30.1789H85.0695V28.1682H83.9386V34.0021H86.0372C87.2038 34.0021 88.0664 33.2247 88.0664 32.0809C88.0664 30.9457 87.2038 30.1789 86.0372 30.1789ZM88.8129 28.1682V34.0021H89.9437V28.1682H88.8129ZM85.921 33.0224H85.0695V31.1544H85.921C86.5154 31.1544 86.9222 31.4995 86.9222 32.066C86.9244 32.6667 86.5154 33.0224 85.921 33.0224ZM93.8145 34H94.9676L96.1454 31.6549C96.3912 31.1544 96.7756 30.1001 96.8337 29.8552L96.8695 29.8658C96.8337 30.4558 96.8114 31.1885 96.8114 31.7551V34H97.9064V28.1448H96.7533L95.5643 30.6006C95.3654 31.0777 95.0168 31.9553 94.9229 32.2556L94.8872 32.2343C94.9117 31.5996 94.9117 31.0777 94.9117 30.6113V28.1448H93.8167V34H93.8145ZM104.75 30.9116C105.112 30.722 105.471 30.3451 105.471 29.7103C105.471 28.7221 104.678 28.032 103.467 28.032C102.209 28.032 101.484 28.7199 101.415 29.9105H102.51C102.557 29.2993 102.872 29.0096 103.489 29.0096C104.059 29.0096 104.376 29.3206 104.376 29.787C104.376 30.2982 104.037 30.5751 103.478 30.5751H102.731V31.4079H103.511C104.177 31.4079 104.548 31.7082 104.548 32.2087C104.548 32.8094 104.153 33.131 103.498 33.131C102.81 33.131 102.425 32.7987 102.378 32.2875H101.294C101.353 33.3994 102.157 34.132 103.498 34.132C104.803 34.132 105.655 33.41 105.655 32.2663C105.659 31.6124 105.226 31.1225 104.75 30.9116ZM105.997 35.3014H107.081V34H110.321V35.3014H111.405V33.0117H110.705V28.1448H107.139C107.116 29.0777 107.067 30.0234 107.011 30.9563C106.953 31.7785 106.801 32.5453 106.464 33.0117H105.997V35.3014ZM107.744 33.0117C107.932 32.5453 108.048 31.9446 108.106 31.2013C108.164 30.5133 108.187 29.8232 108.2 29.1352H109.588V33.0117H107.744ZM114.239 34.1342C115.58 34.1342 116.407 33.3461 116.407 31.9127V30.2236C116.407 28.7902 115.58 28.0021 114.239 28.0021C112.909 28.0021 112.082 28.7902 112.082 30.2236V31.9127C112.082 33.344 112.909 34.1342 114.239 34.1342ZM114.239 33.0905C113.608 33.0905 113.226 32.7348 113.226 31.9127V30.2236C113.226 29.4015 113.611 29.0458 114.239 29.0458C114.88 29.0458 115.265 29.4015 115.265 30.2236V31.9127C115.265 32.7348 114.88 33.0905 114.239 33.0905ZM119.904 28.0128C119.357 28.0128 118.82 28.3003 118.516 28.6794L118.436 28.1342H117.62V36H118.729V33.6656C119.03 33.9659 119.464 34.132 119.906 34.132C121.095 34.132 121.864 33.3099 121.864 31.8893V30.2769C121.864 28.8456 121.071 28.0128 119.904 28.0128ZM120.709 31.8893C120.709 32.7455 120.371 33.1225 119.719 33.1225C119.099 33.1225 118.729 32.656 118.729 31.8893V30.2662C118.729 29.4334 119.135 29.0224 119.719 29.0224C120.349 29.0224 120.709 29.4121 120.709 30.279V31.8893ZM125.08 34.1342C126.421 34.1342 127.248 33.3461 127.248 31.9127V30.2236C127.248 28.7902 126.421 28.0021 125.08 28.0021C123.75 28.0021 122.923 28.7902 122.923 30.2236V31.9127C122.923 33.344 123.752 34.1342 125.08 34.1342ZM125.08 33.0905C124.45 33.0905 124.065 32.7348 124.065 31.9127V30.2236C124.065 29.4015 124.45 29.0458 125.08 29.0458C125.721 29.0458 126.106 29.4015 126.106 30.2236V31.9127C126.106 32.7348 125.721 33.0905 125.08 33.0905ZM131.552 30.8903C131.983 30.6241 132.227 30.1896 132.227 29.7678C132.227 28.7561 131.552 28.1448 130.305 28.1448H128.464V34H130.399C131.831 34 132.544 33.3546 132.544 32.3003C132.542 31.7231 132.24 31.1459 131.552 30.8903ZM129.559 29.0458H130.236C130.819 29.0458 131.121 29.3333 131.121 29.7913C131.121 30.279 130.819 30.5474 130.247 30.5474H129.559V29.0458ZM130.444 33.0905H129.559V31.4569H130.444C131.107 31.4569 131.422 31.7359 131.422 32.2684C131.422 32.8008 131.107 33.0905 130.444 33.0905ZM135.573 30.1235H134.605V28.1448H133.474V34H135.573C136.737 34 137.602 33.2119 137.602 32.0447C137.602 30.901 136.739 30.1235 135.573 30.1235ZM135.456 33.0224H134.605V31.1012H135.456C136.051 31.1012 136.46 31.4569 136.46 32.0447C136.46 32.6454 136.051 33.0224 135.456 33.0224ZM140.109 28.1448C138.885 28.1448 138.047 28.8669 138.047 30.0554C138.047 31.0117 138.525 31.6209 139.155 31.8658L137.85 33.9979H139.133L140.241 32.0213H140.905V33.9979H142V28.1427H140.109V28.1448ZM140.9 31.1012H140.129C139.477 31.1012 139.151 30.7455 139.151 30.0894C139.151 29.4782 139.499 29.1225 140.152 29.1225H140.898V31.1012H140.9Z" fill="#61C1B2"/>
</svg>
