<svg width="44" height="44" viewBox="0 0 44 44" fill="none" xmlns="http://www.w3.org/2000/svg">
<path fill-rule="evenodd" clip-rule="evenodd" d="M21.9999 4.8125C12.5075 4.8125 4.8124 12.5076 4.8124 22C4.8124 26.6226 6.63725 30.8189 9.60585 33.9079L1.47559 42.0382L1.96172 42.5243L10.092 34.3941C13.181 37.3627 17.3773 39.1875 21.9999 39.1875C31.4923 39.1875 39.1874 31.4924 39.1874 22C39.1874 12.5076 31.4923 4.8125 21.9999 4.8125ZM21.9999 5.5C12.8872 5.5 5.4999 12.8873 5.4999 22C5.4999 31.1127 12.8872 38.5 21.9999 38.5C31.1126 38.5 38.4999 31.1127 38.4999 22C38.4999 12.8873 31.1126 5.5 21.9999 5.5Z" fill="#132623"/>
</svg>
